<svg width="33" height="32" viewBox="0 0 33 32" fill="none" xmlns="http://www.w3.org/2000/svg">
<path d="M29.8002 4.57H28.2802V21.33H29.8002V4.57Z" fill="#000001"/>
<path d="M28.2801 21.33H26.7501V24.38H28.2801V21.33Z" fill="#000001"/>
<path d="M26.7501 24.38H25.2301V25.9H26.7501V24.38Z" fill="#000001"/>
<path d="M11.5102 4.57H8.47019V6.1H6.94019V21.33H8.47019V15.24H16.0902V27.43H14.5602V28.95H19.1302V27.43H22.1802V25.9H23.7002V24.38H25.2302V21.33H26.7502V6.1H25.2302V15.24H17.6102V4.57H22.1802V3.05H11.5102V4.57Z" fill="#000001"/>
<path d="M28.2801 3.05H25.2301V4.57H28.2801V3.05Z" fill="#000001"/>
<path d="M25.2302 25.9H23.7002V27.43H25.2302V25.9Z" fill="#000001"/>
<path d="M23.7002 27.43H22.1802V28.95H23.7002V27.43Z" fill="#000001"/>
<path d="M25.2302 4.57H22.1802V6.1H25.2302V4.57Z" fill="#000001"/>
<path d="M25.2302 1.52H22.1802V3.05H25.2302V1.52Z" fill="#000001"/>
<path d="M22.1801 28.95H19.1301V30.48H22.1801V28.95Z" fill="#000001"/>
<path d="M19.1301 30.48H14.5601V32H19.1301V30.48Z" fill="#000001"/>
<path d="M14.5603 28.95H11.5103V30.48H14.5603V28.95Z" fill="#000001"/>
<path d="M14.5603 25.9H11.5103V27.43H14.5603V25.9Z" fill="#000001"/>
<path d="M22.1803 0H11.5103V1.52H22.1803V0Z" fill="#000001"/>
<path d="M11.5102 27.43H9.99023V28.95H11.5102V27.43Z" fill="#000001"/>
<path d="M11.5102 24.38H9.99023V25.9H11.5102V24.38Z" fill="#000001"/>
<path d="M11.5102 1.52H8.47021V3.05H11.5102V1.52Z" fill="#000001"/>
<path d="M9.99022 25.9H8.47021V27.43H9.99022V25.9Z" fill="#000001"/>
<path d="M9.99022 21.33H8.47021V24.38H9.99022V21.33Z" fill="#000001"/>
<path d="M8.47019 24.38H6.94019V25.9H8.47019V24.38Z" fill="#000001"/>
<path d="M8.47017 3.05H5.42017V4.57H8.47017V3.05Z" fill="#000001"/>
<path d="M6.94017 21.33H5.42017V24.38H6.94017V21.33Z" fill="#000001"/>
<path d="M5.42015 4.57H3.90015V21.33H5.42015V4.57Z" fill="#000001"/>
</svg>
